<svg xmlns="http://www.w3.org/2000/svg" viewBox="-8 -6 116 116"><defs><pattern id="hatch" width="5" height="5" patternUnits="userSpaceOnUse" patternTransform="rotate(45)"><rect width="5" height="5" fill="#fff"/><line x1="0" y1="0" x2="0" y2="5" stroke="#000" stroke-width="2.6"/></pattern><pattern id="dots" width="6" height="6" patternUnits="userSpaceOnUse"><rect width="6" height="6" fill="#fff"/><circle cx="3" cy="3" r="1.15" fill="#000"/></pattern><pattern id="stripes" width="6" height="5" patternUnits="userSpaceOnUse"><rect width="6" height="5" fill="#fff"/><line x1="0" y1="2.5" x2="6" y2="2.5" stroke="#000" stroke-width="1.5"/></pattern></defs><rect x="-8" y="-6" width="116" height="116" fill="#fff"/><g class="sway"><path d="M50 88 Q47 59 50 30" style="fill:none;stroke:#000" stroke-width="3.4" stroke-linecap="round" stroke-linejoin="round"/><path d="M50 74 q-7.2 -8.8 -17.6 -4.8 q7.2 8 17.6 4.8 Z" style="fill:#fff;stroke:#000" stroke-width="3.4" stroke-linejoin="round" stroke-linecap="round"/><path d="M50 74 l-12 -4" style="fill:none;stroke:#000" stroke-width="1.87" stroke-linecap="round" stroke-linejoin="round"/><path d="M50 64 q6.3 -7.7 15.4 -4.2 q-6.3 7 -15.4 4.2 Z" style="fill:#fff;stroke:#000" stroke-width="3.4" stroke-linejoin="round" stroke-linecap="round"/><path d="M50 64 l10.5 -3.5" style="fill:none;stroke:#000" stroke-width="1.87" stroke-linecap="round" stroke-linejoin="round"/><ellipse cx="50" cy="12" rx="3.6" ry="8" transform="rotate(0 50 12)" style="fill:#fff;stroke:#000" stroke-width="2.72"/><ellipse cx="55.4" cy="13.6" rx="3.6" ry="8" transform="rotate(32.7 55.4 13.6)" style="fill:#fff;stroke:#000" stroke-width="2.72"/><ellipse cx="59.1" cy="17.8" rx="3.6" ry="8" transform="rotate(65.5 59.1 17.8)" style="fill:#fff;stroke:#000" stroke-width="2.72"/><ellipse cx="59.9" cy="23.4" rx="3.6" ry="8" transform="rotate(98.2 59.9 23.4)" style="fill:#fff;stroke:#000" stroke-width="2.72"/><ellipse cx="57.6" cy="28.5" rx="3.6" ry="8" transform="rotate(130.9 57.6 28.5)" style="fill:#fff;stroke:#000" stroke-width="2.72"/><ellipse cx="52.8" cy="31.6" rx="3.6" ry="8" transform="rotate(163.6 52.8 31.6)" style="fill:#fff;stroke:#000" stroke-width="2.72"/><ellipse cx="47.2" cy="31.6" rx="3.6" ry="8" transform="rotate(196.4 47.2 31.6)" style="fill:#fff;stroke:#000" stroke-width="2.72"/><ellipse cx="42.4" cy="28.5" rx="3.6" ry="8" transform="rotate(229.1 42.4 28.5)" style="fill:#fff;stroke:#000" stroke-width="2.72"/><ellipse cx="40.1" cy="23.4" rx="3.6" ry="8" transform="rotate(261.8 40.1 23.4)" style="fill:#fff;stroke:#000" stroke-width="2.72"/><ellipse cx="40.9" cy="17.8" rx="3.6" ry="8" transform="rotate(294.5 40.9 17.8)" style="fill:#fff;stroke:#000" stroke-width="2.72"/><ellipse cx="44.6" cy="13.6" rx="3.6" ry="8" transform="rotate(327.3 44.6 13.6)" style="fill:#fff;stroke:#000" stroke-width="2.72"/><circle cx="50" cy="22" r="6" style="fill:url(#dots);stroke:#000" stroke-width="3.4"/></g><rect x="6" y="88" width="88" height="8" rx="4" style="fill:url(#dots);stroke:#000" stroke-width="2.72"/></svg>
